<?xml version="1.0" encoding="UTF-8"?>
<!DOCTYPE svg PUBLIC "-//W3C//DTD SVG 1.1//EN" "http://www.w3.org/Graphics/SVG/1.1/DTD/svg11.dtd">
<svg version="1.1" xmlns="http://www.w3.org/2000/svg" xmlns:xlink="http://www.w3.org/1999/xlink" x="0" y="0" width="1071" height="1218" viewBox="0, 0, 1071, 1218">
  <defs>
    <clipPath id="Clip_1">
      <path d="M0.06,0.29 L1070.63,0.29 L1070.63,1217.94 L0.06,1217.94 z"/>
    </clipPath>
  </defs>
  <g id="Layer_1">
    <g clip-path="url(#Clip_1)">
      <path d="M796.746,368.039 C803.266,354.571 808.421,340.527 814.122,326.716 C834.679,276.912 855.611,227.252 875.264,177.092 C882.377,158.939 887.501,139.915 894.64,121.723 C905.145,94.952 916.338,68.438 927.828,42.072 C933.915,28.105 944.401,18.272 959.147,13.109 C982.941,4.779 1007.42,0.571 1032.56,0.293 C1039.74,0.213 1046.75,1.928 1053.67,3.828 C1062.87,6.354 1067.49,12.597 1069.64,21.708 C1071.57,29.84 1070.39,37.579 1068.57,45.349 C1064.36,63.349 1055.78,78.821 1041.54,90.911 C1034.04,97.279 1025.37,100.553 1015.56,101.126 C996.946,102.215 978.699,99.057 960.379,96.616 C944.562,94.509 947.884,91.769 941.096,106.818 C930.492,130.325 919.032,153.419 907.485,176.466 C892.503,206.366 881.295,237.845 868.647,268.712 C813.662,402.894 758.99,537.204 704.201,671.466 C695.467,692.867 686.759,714.278 677.92,735.636 C676.783,738.383 676.785,739.352 680.114,740.268 C688.433,742.557 696.684,745.204 704.76,748.244 C747.243,764.234 771.517,795.487 780.575,839.34 C783.381,852.923 785.001,866.672 784.738,880.528 C784.345,901.186 784.993,921.812 785.497,942.454 C786.317,976.122 784.804,1009.75 782.799,1043.35 C782.607,1046.57 781.469,1047.14 778.663,1047.16 C774.732,1047.18 769.52,1045.73 767.245,1048.28 C765.268,1050.5 766.464,1055.55 766.279,1059.36 C764.196,1102.2 759.059,1144.61 748.678,1186.31 C747.559,1190.81 745.918,1192.24 741.112,1192.23 C660.957,1192.04 580.802,1192.12 500.647,1191.99 C496.998,1191.99 495.414,1193.13 494.237,1196.41 C491.931,1202.82 489.141,1209.05 486.673,1215.41 C485.921,1217.35 485.071,1217.97 482.749,1217.99 C471.906,1218.11 462.912,1213.25 453.89,1208.17 C451.743,1206.96 453.246,1205.9 453.607,1204.95 C455.174,1200.79 456.915,1196.71 458.799,1192.09 C456.612,1192.09 455.005,1192.09 453.399,1192.09 C414.071,1192.09 374.743,1192.02 335.416,1192.19 C331.05,1192.21 329.653,1191.31 329.533,1186.64 C327.992,1126.52 326.204,1066.42 324.481,1006.31 C324.464,1005.71 324.479,1005.12 324.479,1003.65 C322.111,1005.73 320.429,1007.23 318.725,1008.7 C297.103,1027.39 272.137,1038.24 243.507,1039.41 C220.759,1040.33 203.009,1030.1 189.736,1012.1 C179.349,998.008 173.664,981.536 167.599,965.343 C153.419,927.482 142.131,888.636 128.768,850.493 C127.444,846.712 125.504,843.866 122.236,841.488 C110.749,833.132 100.61,823.183 90.591,813.199 C68.454,791.139 43.197,773.505 15.688,758.925 C11.05,756.468 7,753.361 4.072,748.95 C-3.794,737.096 0.063,722.809 12.82,716.473 C13.667,716.053 14.527,715.66 15.495,715.201 C13.591,712.688 11.579,710.477 10.068,707.965 C0.869,692.675 9.639,675.814 27.435,674.805 C31.063,674.6 32.072,674.387 31.099,670.218 C28.152,657.587 36.488,647.097 49.723,646.188 C52.18,646.019 54.801,646.124 57.14,646.808 C60.696,647.847 62.328,647.306 63.815,643.438 C67.09,634.921 77.307,630.602 88.24,632.259 C95.086,633.296 101.413,635.844 107.292,639.341 C137.037,657.035 164.911,677.11 187.847,703.384 C188.043,703.608 188.405,703.686 189.069,704.028 C191.984,697.962 194.813,691.852 198.498,686.205 C201.99,680.854 205.989,676.002 211.311,672.373 C225.931,662.405 241.919,669.914 243.661,687.556 C244.346,694.498 243.648,701.408 240.501,707.554 C234.209,719.844 233.161,733.018 232.774,746.383 C232.408,759.033 233.355,771.879 230.439,784.213 C228.696,791.583 230.445,797.175 233.718,803.355 C243.754,822.306 253.405,841.462 263.481,861.073 C265.886,858.315 268.116,855.76 270.345,853.203 C278.018,844.4 286.377,836.264 294.757,828.151 C296.334,826.623 297.603,825.011 298.333,822.881 C312.697,780.948 342.642,757.222 385.545,749.377 C393.471,747.928 399.533,745.235 404.131,738.705 C406.202,735.764 408.978,733.321 411.765,730.292 C400.617,728.663 389.684,727.839 379.127,725.395 C315.024,710.55 266.081,675.229 234.98,616.669 C214.384,577.891 208.255,536.122 211.15,492.755 C213.147,462.854 219.288,433.777 229.143,405.476 C229.84,403.473 230.924,401.513 230.657,399.024 C218.53,398.38 206.369,397.893 194.538,394.893 C188.933,393.471 183.231,392.218 178.778,387.939 C174.611,383.934 173.872,381.192 176.607,376.038 C179.432,370.714 183.195,366.016 187.159,361.522 C209.089,336.651 234.461,315.619 260.979,295.921 C264.938,292.98 266.687,289.998 266.728,284.941 C266.841,271.132 267.798,257.343 270.973,243.035 C259.06,249.042 247.667,254.788 236.175,260.583 C233.834,232.86 244.553,196.834 297.55,170.896 C285.563,163.701 273.843,156.665 262.09,149.611 C262.404,148.502 263.408,148.814 264.098,148.859 C300.499,151.243 335.227,142.527 369.625,132.412 C396.002,124.655 422.376,117.061 449.83,114.367 C516.683,107.809 579.421,119.412 636.072,157.283 C636.416,157.513 636.822,157.649 637.89,158.157 C634.785,151.576 631.975,145.618 629.149,139.629 C630.349,138.199 631.241,139.768 632.056,140.125 C649.743,147.873 667.179,156.073 682.182,168.568 C700.371,183.716 714.163,201.864 717.624,225.792 C718.784,233.812 721.552,236.002 729.128,237.584 C753.763,242.726 769.794,258.949 780.684,280.906 C786.175,291.977 789.364,303.8 792.488,316.174 C785.206,314.837 778.947,311.344 771.94,309.619 C774.894,329.471 781.976,347.066 793.758,362.751 C794.677,363.975 796.583,365.046 795.605,367.167 C791.891,368.499 788.906,366.019 785.627,365.177 C782.575,364.394 779.639,363.177 776.674,362.079 C772.621,360.58 771.912,360.971 771.973,365.298 C772.107,374.824 770.742,384.194 769.329,393.557 C766.552,411.956 760.614,429.406 752.781,446.202 C750.871,450.3 750.374,453.976 752.172,458.096 C753.353,460.805 753.86,463.767 754.851,467.334 C760.613,454.144 765.527,441.46 770.742,428.904 C778.523,410.169 786.085,391.343 793.899,372.621 C794.597,370.949 795.097,369.13 796.746,368.039" fill="#2F201B"/>
    </g>
    <path d="M796.746,368.039 C791.919,382.204 785.649,395.793 780.051,409.65 C772.017,429.539 763.807,449.357 755.664,469.202 C755.436,469.758 755.125,470.279 754.556,471.404 C752.666,464.819 751.007,458.855 749.222,452.929 C748.701,451.198 749.758,450.058 750.366,448.766 C763.283,421.273 770.67,392.488 770.761,361.984 C770.766,360.175 770.242,358.137 773.53,359.379 C780.827,362.137 788.24,364.59 795.605,367.167 C795.986,367.458 796.366,367.748 796.746,368.039" fill="#FEFEFE"/>
    <path d="M460.884,415.853 C481.631,427.899 503.283,437.862 526.413,444.462 C560.338,454.142 594.771,458.753 630.062,455.047 C637.284,454.288 637.2,454.344 637.598,461.805 C638.536,479.395 639.568,496.981 640.647,516.073 C646.221,505.74 651.36,496.748 655.987,487.499 C661.685,476.111 669.886,466.754 679.175,458.36 C701.244,438.418 732.967,448.604 739.724,477.624 C746.264,505.709 726.789,537.032 698.88,543.225 C691.364,544.892 684.021,544.269 676.898,541.172 C675.536,540.58 673.95,538.739 672.457,540.624 C670.765,542.76 672.882,543.405 674.299,544.196 C675.712,544.985 675.167,546.042 674.834,547.203 C661.168,594.704 640.253,637.936 602.056,671.019 C592.719,679.106 582.742,686.306 571.952,692.306 C569.232,693.818 568.151,695.487 568.522,698.553 C568.942,702.018 568.559,705.608 569.212,709.011 C570.5,715.717 567.504,720.184 562.509,723.968 C552.018,731.916 540.732,738.648 529.605,745.625 C515.097,754.72 500.383,763.484 486.662,773.796 C479.501,779.177 473.73,785.45 472.202,794.539 C468.56,816.207 454.496,832.467 442.998,851.807 C442.113,844.378 441.188,838.287 440.719,832.161 C440.322,826.98 439.058,822.879 434.22,819.711 C427.664,815.416 422.229,809.613 417.759,803.123 C407.395,788.077 410.048,779.996 418.189,770.64 C419.372,769.28 420.43,767.811 422.059,765.741 C422.697,768.983 423.207,771.574 423.717,774.165 C424.054,774.143 424.391,774.121 424.727,774.099 C425.043,763.285 425.373,752.472 425.666,741.658 C425.743,738.827 425.711,735.994 425.718,733.161 C425.738,725.398 425.698,725.731 417.808,724.841 C342.173,716.309 282.369,682.353 244.307,614.874 C223.766,578.459 216.573,538.62 217.479,497.06 C218.249,461.719 226.872,427.959 237.256,394.509 C238.042,391.978 238.973,389.492 239.836,386.986 C246.289,383.143 253.739,383.167 260.792,381.769 C265.087,380.917 269.532,379.664 274.001,381.175 C275.46,382.07 275.884,383.258 275.223,384.946 C275.714,382.985 276.082,380.917 278.263,380.099 C293.018,377.838 307.784,378.687 322.54,379.99 C359.313,383.238 394.438,393.599 429.345,404.869 C439.94,408.29 450.892,410.698 460.884,415.853" fill="#FBE4DB"/>
    <path d="M433.415,879.863 C435.748,871.319 439.281,863.4 444.541,856.167 C448.642,850.528 451.859,844.249 455.888,838.552 C465.186,825.407 472.709,811.52 475.804,795.512 C477.304,787.756 482.03,782.169 488.22,777.475 C505.487,764.378 524.37,753.783 542.528,742.065 C549.791,737.379 556.967,732.549 564.06,727.608 C570.303,723.257 574.282,717.764 572.872,709.485 C572.29,706.07 572.613,702.503 572.492,699.007 C572.4,696.349 573.274,694.874 575.942,696.674 C586.169,703.576 595.144,711.813 599.749,723.514 C602.217,729.784 599.447,736.393 598.268,742.675 C591.708,777.62 583.471,812.201 575.173,846.811 C572.982,846.987 572.324,845.139 571.238,844.082 C557.153,830.366 543.072,816.64 527.169,804.988 C514.785,795.914 505.096,794.948 492.681,802.2 C496.894,801.832 499.709,801.737 502.474,801.317 C509.917,800.187 516.453,801.829 522.631,806.333 C537.761,817.366 551.299,830.174 564.736,843.118 C567.256,845.545 569.637,848.118 572.193,850.504 C573.449,851.677 574.367,853.919 576.538,853.185 C578.349,852.573 578.155,850.421 578.528,848.886 C582.963,830.638 587.237,812.351 591.734,794.118 C596.628,774.277 601.82,754.508 606.623,734.645 C607.622,730.51 609.255,730.025 613.046,731.116 C624.056,734.285 635.156,737.156 646.28,739.903 C649.064,740.59 649.792,741.218 648.589,744.126 C633.156,781.444 618.839,819.265 602.104,855.985 C593.449,874.975 585.579,894.292 576.96,913.285 C575.564,916.363 573.315,916.308 570.958,916.576 C561.036,917.705 551.099,918.691 541.173,919.79 C539.03,920.027 536.901,920.451 534.79,920.902 C519.97,924.064 512.347,932.304 510.645,947.42 C509.853,954.458 509.776,961.446 506.23,968.051 C503.343,973.429 505.667,980.161 504.089,985.622 C502.511,991.082 497.821,995.715 497.033,1001.82 C496.63,1004.94 496.034,1008.29 496.748,1011.24 C498.361,1017.91 497.611,1024.08 495.724,1030.6 C491.582,1044.91 496.804,1056.44 507.977,1065.47 C510.889,1067.83 510.97,1069.7 509.611,1072.89 C494.507,1108.37 479.497,1143.88 464.645,1179.46 C463.259,1182.78 461.625,1183.82 458.091,1183.8 C419.767,1183.67 381.443,1183.66 343.12,1183.81 C339.047,1183.83 337.833,1182.83 337.725,1178.63 C336.15,1117.19 334.457,1055.75 332.554,994.321 C332.334,987.218 330.446,980.183 329.747,973.076 C326.27,937.724 330.239,902.977 338.531,868.602 C338.724,867.801 338.705,866.949 338.784,866.12 C338.98,865.592 339.206,865.02 338.601,864.643 C338.388,864.51 338.066,864.767 337.879,865.023 C330.956,886.81 326.69,909.098 325.294,931.946 C323.335,932.35 323.79,930.587 323.404,929.723 C315.86,912.813 306.258,897.413 291.426,885.813 C285.224,880.963 278.462,877.181 270.937,874.759 C265.878,873.131 265.528,871.97 268.797,867.845 C278.623,855.445 288.932,843.457 299.911,832.061 C301.574,830.335 302.682,828.437 303.528,826.221 C315.891,793.823 338.053,771.559 371.355,760.909 C377.263,759.019 383.069,756.672 390.633,755.576 C386.818,760.338 383.816,764.017 380.886,767.752 C366.369,786.267 354.117,806.208 343.642,827.249 C342.848,828.844 340.51,830.853 342.629,832.507 C345.025,834.376 346.434,831.45 347.892,830.154 C358.339,820.865 368.816,811.625 379.816,802.975 C383.506,800.073 386.736,799.748 390.591,802.166 C397.202,806.313 403.882,810.351 410.532,814.435 C412.097,814.03 410.823,813.498 410.595,813.012 C404.792,807.233 398.404,802.251 391.116,798.441 C386.555,796.057 382.516,796.135 378.204,799.439 C368.966,806.518 360.249,814.202 351.154,821.548 C369.283,787.805 390.193,756.301 422.458,731.895 C422.458,741.335 422.421,749.416 422.487,757.496 C422.501,759.192 421.558,760.235 420.621,761.407 C418.024,764.657 415.522,767.982 412.913,771.222 C406.224,779.528 405.811,788.504 410.185,797.879 C414.952,808.098 422.806,815.778 431.462,822.652 C434.603,825.147 436.67,827.535 436.86,831.952 C437.158,838.908 438.444,845.823 439.339,852.752 C439.791,856.257 439.579,859.478 437.878,862.84 C435.349,867.841 433.264,873.121 432.572,878.795 C432.029,880.108 432.359,881.548 431.98,882.884 C431.045,884.774 431.289,886.966 430.719,888.532 C431.496,887.29 430.908,885.276 431.798,883.645 C432.337,882.384 431.956,880.73 433.415,879.863" fill="#DEE8A7"/>
    <path d="M255.665,1030.8 C233.786,1036.4 208.846,1025.81 194.935,1004.64 C185.83,990.787 180.366,975.188 174.661,959.76 C160.995,922.806 149.864,884.994 136.888,847.804 C134.964,842.29 132.257,837.982 127.316,834.505 C116.394,826.823 106.931,817.338 97.507,807.94 C75.286,785.78 50.174,767.665 22.552,752.908 C19.484,751.269 16.281,749.786 13.77,747.272 C9.746,743.243 7.608,738.469 9.164,732.79 C10.727,727.09 14.98,724.093 20.595,722.886 C29.798,720.908 38.175,723.632 45.863,728.202 C55.143,733.719 64.159,739.709 73.027,745.871 C76.992,748.626 79.709,748.352 83.317,745.199 C91.336,738.191 99.783,731.674 108.031,724.927 C117.309,717.339 126.637,709.828 137.157,703.962 C138.402,703.268 140.315,702.581 139.358,700.709 C138.465,698.964 136.653,699.495 135.497,700.516 C131.352,704.178 128.617,702.094 125.195,698.976 C109.439,684.621 93.361,670.621 75.249,659.218 C71.304,656.735 70.151,653.072 70.888,648.912 C71.705,644.307 75.125,641.893 79.512,640.982 C86.388,639.555 92.693,641.609 98.755,644.595 C112.392,651.312 124.746,660.051 136.865,669.119 C154.898,682.612 172.294,696.787 186.262,714.734 C189.137,718.428 188.483,720.747 185.337,723.477 C175.929,731.639 168.597,741.506 162.358,752.206 C161.746,753.256 159.365,754.417 161.929,756.18 C164.499,757.948 164.736,755.553 165.439,754.379 C171.981,743.453 179.581,733.4 189.356,725.135 C190.88,723.846 191.277,722.116 191.906,720.406 C195.868,709.622 200.16,698.994 206.669,689.418 C209.701,684.958 213.23,680.988 217.978,678.333 C225.488,674.133 232.289,677.073 234.531,685.395 C236.452,692.524 235.13,699.422 231.996,705.775 C226.622,716.67 225.12,728.259 224.529,740.132 C223.859,753.598 224.314,767.117 222.614,780.534 C222.468,781.688 222.539,782.958 222.067,783.968 C218.5,791.6 221.191,798.04 224.906,804.909 C240.464,833.677 255.61,862.668 271.289,892.3 C272.629,887.962 269.774,885.215 269.245,881.2 C298.853,892.275 314.813,914.496 323.97,942.809 C313.735,963.116 301.262,981.969 287.025,999.676 C279.607,1008.9 271.512,1017.5 263.042,1025.77 C260.856,1027.9 258.407,1029.54 255.665,1030.8" fill="#FBE4DB"/>
    <path d="M726.663,349.01 C726.702,360.449 726.654,371.881 723.539,383.384 C715.016,361.757 706.492,340.13 697.654,317.708 C692.601,325.961 690.545,334.475 687.169,343.082 C670.358,327.083 661.844,306.779 652.516,286.983 C650.351,290.536 649.624,294.3 649.596,302.304 C649.577,307.711 649.592,313.117 648.781,318.752 C626.592,294.465 614.523,264.542 600.399,234.827 C598.069,241.121 595.276,237.643 592.608,235.989 C555.807,213.184 517.237,194.404 474.781,184.615 C461.212,181.487 447.466,179.707 433.506,178.769 C409.976,177.188 387.152,180.316 364.838,187.232 C344.017,193.686 325.084,204.041 307.795,217.346 C305.76,218.913 304.63,221.134 303.473,223.375 C293.93,241.857 284.335,260.313 274.738,278.767 C274.311,279.588 274.217,280.731 272.445,281.084 C273.917,259.093 279.684,238.965 294.713,220.813 C277.555,229.805 261.452,238.244 244.281,247.242 C249.85,206.241 275.536,185.127 311.493,172.588 C301.141,166.915 291.213,161.475 280.295,155.492 C291.251,154.127 301.087,153.568 310.838,152.147 C331.215,149.178 351.272,144.829 371.003,139.02 C393.276,132.463 415.53,125.852 438.522,122.25 C458.946,119.051 479.582,117.812 500.147,119.228 C550.339,122.684 595.993,139.521 637.398,167.974 C643.678,172.29 649.699,176.983 656.44,181.944 C655.439,176.941 653.388,173.065 651.678,169.065 C649.989,165.116 648.375,161.134 646.168,155.817 C661.874,163.989 675.759,172.348 686.63,184.988 C689.939,188.927 691.234,193.832 692.882,198.511 C698.251,213.755 703.345,229.091 706.921,244.881 C707.105,245.694 707.378,246.492 707.479,247.316 C707.714,249.247 708.883,251.508 707.232,253.017 C705.359,254.728 703.068,253.394 701.124,252.575 C691.324,248.446 681.461,244.423 676.008,240.511 C687.344,249.272 698.371,263.432 707.535,279.187 C716.207,294.095 722.842,309.86 727.629,326.415 C728.433,329.194 730.033,331.938 727.253,334.694 C726.58,335.361 727.146,336.948 727.077,338.108 C726.859,341.739 727.564,345.405 726.663,349.01" fill="#894D28"/>
    <path d="M758.606,1038.74 C735.819,1039.21 713.033,1039.69 690.246,1040.15 C677.436,1040.4 664.625,1040.65 651.814,1040.83 C644.945,1040.93 644.738,1040.87 644.508,1033.76 C644.09,1020.79 643.922,1007.81 643.689,994.833 C643.343,975.535 643.19,956.231 642.621,936.939 C642.415,929.967 637.768,924.356 635.446,918.01 C635.127,917.785 634.796,917.322 634.416,917.82 C634.135,918.188 634.273,918.654 634.499,919.053 C634.566,919.956 634.634,920.859 634.701,921.761 C632.166,926.884 628.432,930.581 622.679,931.88 C619.24,924.943 613.803,920.299 606.34,918.338 C603.392,917.563 603.695,916.402 604.601,914.145 C609.677,901.5 615.236,889.001 619.463,876.071 C633.356,833.573 652.463,793.143 668.201,751.389 C670.037,746.518 671.892,745.393 677.112,746.785 C704.022,753.958 728.202,765.675 746.912,786.943 C752.969,793.828 758.18,801.323 761.595,809.929 C764.666,818.858 764.874,828.201 765.1,837.449 C765.727,863.239 764.519,888.88 760.736,914.509 C757.653,935.399 758.954,956.611 759.855,977.725 C760.62,995.647 762.707,1013.52 762.143,1031.49 C762.052,1034.37 762.7,1037.75 758.606,1038.74" fill="#DEE8A7"/>
    <path d="M659.626,438.001 C655.929,437.843 654.947,434.291 652.702,432.346 C650.116,430.106 647.875,427.468 645.484,425.003 C643.693,424.373 642.467,422.999 641.179,421.712 C628.394,408.934 615.612,396.154 602.835,383.368 C601.547,382.079 600.188,380.842 599.598,379.031 C588.111,367.438 575.78,356.768 563.345,346.232 C535.372,322.531 506.14,300.556 474.179,282.418 C453.438,270.648 431.85,260.898 408.624,255.052 C379.666,247.764 351.629,251.579 324.068,261.792 C307.613,267.889 292.195,275.975 277.529,285.563 C276.223,286.417 275.125,287.801 272.852,287.723 C280.459,273.637 287.921,259.81 295.394,245.989 C298.4,240.428 301.739,235.022 304.367,229.288 C307.182,223.146 311.527,218.787 317.045,215.039 C343.392,197.143 372.113,186.015 403.967,182.918 C439.479,179.466 473.45,186.021 506.7,197.756 C539.018,209.161 569.004,225.217 597.781,243.677 C600.583,245.475 602.364,247.704 603.721,250.721 C612.053,269.24 621.114,287.378 632.189,304.459 C637.01,311.892 642.576,318.687 648.647,325.1 C650.131,327.535 651.074,330.164 651.652,332.959 C656.367,355.754 659.103,378.771 660.277,402.029 C660.771,411.812 661.156,421.576 661.122,431.363 C661.113,433.674 661.293,436.053 659.626,438.001" fill="#00ABA6"/>
    <path d="M215.778,342.005 C225.265,331.216 236.312,322.097 247.308,312.967 C271.488,292.893 297.337,275.426 326.688,263.649 C345.421,256.132 364.781,251.751 385.079,253.074 C404.526,254.342 422.889,260.038 440.691,267.683 C474.58,282.237 504.876,302.657 534.043,324.926 C556.561,342.117 577.623,361.008 598.62,379.979 C600.966,380.71 602.418,382.669 604.046,384.249 C617.147,396.961 630.252,409.674 642.686,423.054 C643.487,423.916 644.209,424.802 644.621,425.914 C648.168,429.873 651.582,433.962 655.307,437.746 C658.005,440.488 657.135,442.247 654.411,444.024 C648.116,448.133 640.934,449.672 633.721,450.822 C610.798,454.476 587.951,452.9 565.16,449.373 C560.616,448.67 555.972,448.511 551.623,446.793 C549.811,445.559 547.698,445.222 545.618,444.78 C517.74,436.349 493.048,421.679 469.056,405.659 C443.018,388.274 418.992,368.139 393.389,350.157 C375.736,337.759 357.267,326.972 336.419,320.753 C295.526,308.554 257.541,314.194 222.613,339.082 C220.617,340.504 219,343.272 215.778,342.005" fill="#00ABA6"/>
    <path d="M558.542,972.723 C542.312,974.21 526.199,976.333 510.91,982.378 C508.599,983.292 508.09,982.891 507.874,980.57 C506.845,969.554 512.255,961.207 522.824,958.172 C537.197,954.044 551.942,951.579 566.591,948.693 C567.312,948.089 568.111,947.665 568.812,947.632 C567.459,947.994 565.8,947.026 564.195,947.787 C547.23,948.872 530.617,951.926 514.329,956.806 C511.772,940.764 519.738,927.717 535.333,924.951 C556.927,921.121 578.693,917.506 600.781,920.862 C610.43,922.328 616.999,927.51 620.552,936.941 C624.707,947.973 626.484,959.43 627.933,970.981 C630.962,995.129 637.45,1018.59 642.003,1042.43 C643.656,1051.09 645.668,1059.67 647.322,1068.32 C648.297,1073.43 650.74,1077.61 654.216,1081.34 C657.847,1085.24 661.117,1089.52 665.009,1093.13 C671.996,1099.61 672.155,1107.26 669.81,1115.59 C668.1,1121.67 664.906,1126.93 660.477,1131.3 C643.868,1147.68 623.708,1155.9 600.496,1156.86 C592.203,1157.21 586.52,1153.52 583.474,1145.78 C582.866,1144.23 582.094,1142.75 581.557,1141.18 C579.442,1135 575.761,1130.51 569.965,1126.96 C553.003,1116.55 544.911,1100.82 544.783,1081.03 C544.742,1074.71 545.341,1068.39 545.48,1062.07 C545.577,1057.61 546.241,1052.65 541.352,1050.11 C535.862,1047.27 530.152,1047.21 524.676,1050.5 C519.172,1053.81 516.149,1059.19 513.216,1064.61 C498.492,1053.96 494.863,1041.61 501.142,1024.81 C502.357,1021.56 504.857,1020.22 507.545,1019.01 C518.724,1013.97 530.713,1011.99 542.677,1009.94 C543.453,1009.81 544.236,1009.72 545.025,1008.89 C541.948,1008.89 538.862,1008.74 535.796,1008.93 C532.644,1009.12 529.491,1009.51 526.375,1010.03 C518.822,1011.29 511.251,1012.68 504.406,1016.28 C501.662,1017.72 501.384,1016.39 500.92,1014.38 C497.663,1000.36 504.137,988.546 517.813,983.822 C531.688,979.03 546.065,976.33 560.473,973.783 C560.861,971.549 559.481,972.539 558.542,972.723" fill="#FEFEFE"/>
    <path d="M753.708,1105.15 C751.539,1130.73 746.747,1155.87 741.141,1180.88 C740.563,1183.46 739.094,1183.73 736.844,1183.73 C698.359,1183.67 659.873,1183.69 621.388,1183.69 C620.076,1183.68 618.678,1183.95 617.707,1182.7 C612.244,1175.66 606.787,1168.61 600.884,1161 C619.02,1159.92 634.999,1154.8 649.477,1145.44 C662.882,1136.78 673.309,1125.82 675.107,1108.46 C681.042,1113.12 686.587,1117.48 692.118,1121.83 C692.815,1121.06 692.9,1120.36 692.322,1119.89 C679.954,1109.86 673.041,1095.13 661.817,1084.21 C651.503,1074.19 648.384,1062.14 648.682,1048.48 C648.739,1045.87 649.076,1044.63 652.195,1044.74 C668.666,1045.29 685.145,1045.6 701.622,1046 C710.898,1046.94 720.201,1046.34 729.486,1046.31 C733.032,1046.29 734.973,1047.63 736.529,1050.57 C743.891,1064.47 748.347,1079.49 753.241,1094.33 C754.36,1097.72 754.654,1101.49 753.708,1105.15" fill="#FBE4DB"/>
    <path d="M619.33,864.818 C614.678,861.337 609.798,859.759 604.477,858.595 C614.099,835.167 623.631,811.963 633.158,788.758 C661.826,718.932 690.029,648.909 719.477,579.414 C727.067,561.504 733.207,543.045 741.396,525.414 C742.154,523.782 741.291,519.91 745.462,521.327 C745.594,521.372 746.46,519.763 746.72,518.849 C759.963,472.324 781.68,429.106 799.369,384.32 C817.02,339.632 835.704,295.351 853.951,250.898 C864.431,225.367 875.055,199.892 885.327,174.277 C887.033,170.024 888.293,168.927 892.909,170.823 C897.583,172.743 898.534,174.26 896.549,179.162 C822.875,361.171 749.357,543.245 675.826,725.313 C657.583,770.482 639.37,815.662 621.135,860.834 C620.643,862.054 620.051,863.233 619.33,864.818" fill="#E9EEF1"/>
    <path d="M460.884,415.853 C447.743,411.835 434.569,407.921 421.467,403.777 C396.526,395.889 371.371,388.748 345.585,384.283 C334.555,382.373 323.271,381.793 312.106,380.679 C300.581,379.53 289.293,381.32 277.9,380.988 C277.364,380.473 277.267,379.813 277.482,379.167 C280.45,370.248 284.615,361.981 291.252,355.201 C295.201,351.167 300.01,350.903 305.083,352.836 C309.165,354.39 312.364,357.283 315.891,360.283 C315.513,358.09 314.576,356.566 313.655,355.074 C305.949,342.6 293.1,342.032 284.407,353.815 C279.616,360.31 278.006,367.943 276.956,375.732 C276.651,378.003 276.957,380.468 274.628,381.971 C264.082,381.693 253.997,384.608 243.755,386.435 C242.457,386.666 241.143,386.804 239.836,386.986 C245.495,367.323 252.722,348.231 260.641,329.381 C261.642,326.997 263.373,326.365 265.509,325.712 C285.55,319.588 305.359,321.67 324.981,327.546 C352.134,335.677 375.829,350.365 398.17,367.314 C413.15,378.679 427.543,390.817 442.334,402.435 C448.331,407.145 454.69,411.394 460.884,415.853" fill="#F5D8CE"/>
    <path d="M1056.98,12.831 C1062.01,15.394 1063.09,20.437 1063.28,25.075 C1064.39,52.172 1054.04,74.074 1031.7,89.565 C1021.9,96.366 1010.09,95.201 998.781,94.531 C983.163,93.608 967.748,90.923 952.292,88.673 C948.791,88.163 945.747,88.494 942.726,90.105 C939.965,89.841 940.539,87.722 940.706,86.11 C941.158,81.725 941.666,77.334 942.958,73.089 C943.363,71.786 943.896,70.526 944.304,69.222 C948.718,59.19 952.863,49.046 959.216,39.966 C962.515,35.249 966.572,32.002 972.027,30.239 C988.528,24.903 1005.55,21.914 1022.54,18.739 C1028.41,17.641 1034.25,16.387 1040.19,15.676 C1042.04,15.741 1043.75,15.069 1045.5,14.615 C1049.2,13.226 1052.88,11.677 1056.98,12.831" fill="#E3E7EA"/>
    <path d="M726.663,349.01 C727.052,343.306 726.646,337.634 727.463,331.842 C728.094,327.364 725.237,322.296 723.59,317.61 C716.617,297.776 707.497,279.053 694.737,262.21 C687.588,252.775 679.076,244.69 670.399,236.609 C682.248,242.345 693.734,248.889 707.183,253.369 C702.883,229.271 694.553,207.189 686.629,184.988 C698.821,196.782 706.24,211.132 709.6,227.686 C710.532,232.28 710.718,236.903 710.587,241.562 C710.544,243.095 710.38,244.174 712.851,244.189 C738.067,244.342 756.369,256.486 769.228,277.52 C773.482,284.479 776.579,292.056 779.32,299.746 C779.577,300.469 779.46,301.324 779.525,302.219 C773.555,300.529 771.786,299.069 761.339,287.137 C762.751,309.542 766.381,330.451 775.862,350.887 C771.641,349.978 769.213,347.813 766.788,345.681 C765.643,344.673 764.592,343.46 762.901,344.479 C761.288,345.452 761.754,346.982 761.875,348.496 C763.999,375.044 759.876,400.694 750.702,425.608 C750.53,426.075 750.35,426.539 749.906,427.713 C746.676,420.771 743.289,415.165 741.486,409.088 C740.052,404.252 742.317,399.015 742.891,393.959 C743.785,386.083 745.284,378.276 746.513,370.437 C746.753,368.907 746.534,367.434 745.652,366.131 C745.096,365.309 744.573,364.397 743.826,363.781 C736.394,357.653 731.591,350.053 730.211,340.38 C729.944,338.51 728.975,336.74 728.048,334.128 C726.772,339.638 728.702,344.51 726.663,349.01" fill="#79401B"/>
    <path d="M659.626,438.001 C660.155,423.208 659.59,408.401 658.431,393.695 C656.693,371.643 654.429,349.594 648.817,328.074 C648.571,327.131 648.695,326.092 648.647,325.099 C649.717,325.874 650.787,326.649 652.337,327.771 C653.343,318.36 651.776,309.092 653.771,299.16 C663.298,317.915 672.351,336.16 689.043,349.657 C691.974,342.17 693.345,334.486 697.343,326.843 C706.35,349.691 715.092,371.865 724.14,394.818 C729.393,382.915 731.345,370.958 732.756,358.85 C740.387,362.8 742.966,367.989 741.791,376.156 C739.613,391.277 737.543,406.414 735.527,421.557 C734.674,427.961 734.793,427.934 728.49,426.954 C706.478,423.53 685.482,427.249 665.198,435.991 C663.388,436.771 661.486,437.336 659.626,438.001" fill="#00A29E"/>
    <path d="M586.508,693.477 C605.711,680.672 622.173,665.279 636.204,647.285 C636.809,646.509 637.622,645.882 638.394,645.254 C660.005,627.661 679.84,608.351 696.749,584.185 C695.922,598.823 697.679,611.858 692.398,625.041 C678.798,658.989 666.358,693.404 653.759,727.744 C652.093,732.285 650.337,732.896 646.015,731.586 C634.565,728.114 622.963,725.143 611.419,721.981 C609.993,721.591 608.359,721.532 607.669,719.907 C603.129,709.206 595.203,701.181 586.508,693.477" fill="#FEFEFE"/>
    <path d="M499.542,1182.85 C504.87,1166.97 511.539,1151.61 517.566,1136 C524.677,1117.58 531.926,1099.22 539.126,1080.84 C539.414,1080.11 539.822,1079.42 540.46,1078.14 C541.115,1083.63 541.477,1088.5 542.311,1093.3 C544.994,1108.72 553.077,1120.93 566.243,1129.05 C573.67,1133.62 577.566,1139.77 579.757,1147.65 C580.488,1151.95 578.833,1155.87 577.642,1159.82 C575.718,1166.2 573.98,1172.63 571.982,1178.98 C571.206,1181.45 570.18,1183.43 566.876,1183.41 C544.892,1183.29 522.908,1183.39 500.923,1183.34 C500.386,1183.34 499.978,1183.08 499.542,1182.85" fill="#DEE8A7"/>
    <path d="M758.606,1038.74 C760.58,1037.49 760.563,1035.57 760.636,1033.5 C761.296,1015.04 759.326,996.656 758.305,978.276 C757.352,961.121 757.401,943.993 757.852,926.9 C758.177,914.578 760.883,902.326 762.359,890.022 C762.99,884.764 763.474,879.457 763.54,874.166 C763.81,852.73 763.886,831.291 761.595,809.929 C769.004,823.751 772.333,838.793 774.426,854.125 C776.796,871.483 776.519,888.91 775.882,906.415 C775.375,920.334 777.003,934.316 777.214,948.278 C777.653,977.235 776.374,1006.15 774.726,1035.06 C774.547,1038.2 773.501,1039.04 770.572,1038.87 C766.594,1038.63 762.595,1038.76 758.606,1038.74" fill="#D3DC9E"/>
    <path d="M1056.98,12.831 C1053.17,13.894 1049.36,14.957 1045.55,16.02 C1043.03,15.315 1040.61,16.148 1038.15,16.472 C1020.59,19.02 1003.02,21.46 985.679,25.285 C981.94,26.109 978.312,27.344 974.605,28.211 C965.827,30.263 960.091,35.72 955.96,43.436 C951.713,51.371 948.658,59.799 945.246,68.076 C944.988,69.642 943.542,71.012 944.456,72.78 C943.515,77.872 942.551,82.96 941.652,88.059 C941.502,88.911 941.992,89.619 942.726,90.105 C940.497,92.39 938.975,95.096 937.668,98 C933.374,107.541 928.868,116.989 924.659,126.567 C923.493,129.221 922.496,130.034 919.62,128.652 C914.844,126.358 909.875,124.435 904.895,122.61 C902.349,121.677 901.724,120.773 902.962,118.064 C913.304,95.426 922.563,72.329 931.8,49.224 C937.785,34.254 947.815,23.668 963.589,18.556 C988.977,10.329 1014.76,5.687 1041.52,8.107 C1046.94,8.598 1052.41,9.335 1056.98,12.831" fill="#D3D8DB"/>
    <path d="M215.778,342.005 C220.895,338.658 225.915,335.15 231.146,331.991 C268.739,309.287 307.91,308.164 348.273,323.552 C370.574,332.053 389.795,345.693 408.754,359.748 C435.305,379.43 461.081,400.194 489.485,417.28 C507.58,428.165 526.405,437.494 546.454,444.244 C546.414,445.993 545.384,445.372 544.486,445.065 C506.158,436.492 471.11,420.907 440.497,396.029 C417.658,377.47 395.224,358.38 369.733,343.4 C351.005,332.394 331.331,323.832 309.791,319.929 C277.78,314.129 250.079,323.382 225.335,343.538 C212.752,353.789 202.253,366.073 191.154,377.788 C189.504,379.529 187.955,383.801 184.821,381.497 C180.878,378.6 185.47,376.237 186.862,374.318 C195.383,362.573 205.188,351.926 215.778,342.005" fill="#FEFEFE"/>
    <path d="M29.713,682.959 C36.903,683.357 43.092,685.655 49.054,688.692 C67.351,698.014 83.66,710.316 99.992,722.596 C102.123,724.198 101.921,725.049 99.98,726.58 C93.455,731.731 86.969,736.939 80.645,742.333 C78.558,744.113 77.124,743.762 75.045,742.448 C64.951,736.062 55.655,728.313 44.747,723.351 C37.55,720.077 31.236,715.632 24.844,711.192 C22.518,709.576 20.363,707.763 18.694,705.415 C15.337,700.69 13.385,695.688 16.247,690.074 C19.115,684.447 24.419,683.253 29.713,682.959" fill="#FBE4DB"/>
    <path d="M126.678,705.398 C119.984,710.631 113.519,715.559 107.22,720.692 C105.548,722.054 104.701,721.292 103.45,720.335 C87.851,708.413 71.904,697.032 54.929,687.074 C49.417,683.841 44.357,679.444 41.238,673.494 C38.892,669.02 37.824,664.319 40.79,659.746 C43.66,655.32 48.223,654.496 53.114,654.792 C59.077,655.153 64.451,657.398 69.489,660.354 C90.582,672.728 108.399,689.248 126.678,705.398" fill="#FBE4DB"/>
    <path d="M645.57,625.9 C656.433,607.345 665.621,588.019 672.341,567.563 C674.412,561.256 676.486,554.949 678.48,548.618 C678.89,547.317 678.789,546.078 680.913,546.547 C701.424,551.069 717.074,542.659 730.269,527.818 C730.687,527.348 731.241,526.998 731.83,526.51 C733.043,541.889 721.633,572.42 705.01,591.157 C705.01,578.277 705.01,566.124 705.01,553.972 C704.558,553.794 704.105,553.616 703.652,553.438 C690.827,582.827 669.825,605.751 646.64,626.95 C645.664,627.231 645.312,626.876 645.57,625.9" fill="#79401B"/>
    <path d="M719.608,446.958 C692.739,438.971 670.971,453.027 658.737,474.707 C653.844,483.38 649.247,492.22 644.005,501.928 C643.477,497.691 642.767,494.406 642.712,491.111 C642.521,479.485 641.925,467.889 640.718,456.327 C640.517,454.4 641.043,453.249 643.062,452.636 C650.048,450.514 656.59,448.111 661.708,442.02 C664.287,438.952 669.592,438.031 673.797,436.502 C687.15,431.646 700.934,428.95 715.181,429.057 C717.977,429.078 720.769,429.726 723.563,430.085 C724.377,436.209 723.402,441.914 719.608,446.958" fill="#884C28"/>
    <path d="M256.562,328.984 C248.467,348.803 242.256,368.252 235.41,387.471 C234.043,391.31 232.176,392.757 227.849,392.428 C215.071,391.459 202.563,389.566 190.311,384.759 C209.92,363.276 228.216,340.932 256.562,328.984" fill="#E2E3E3"/>
    <path d="M255.665,1030.8 C258.788,1027.87 261.955,1024.99 265.027,1022.01 C285.489,1002.15 301.885,979.219 316.359,954.769 C318.751,950.729 319.817,945.75 323.97,942.809 C325.36,947.044 324.493,951.34 324.157,955.582 C323.33,966.029 322.791,976.471 323.726,986.933 C323.877,988.621 324.082,990.054 322.675,991.487 C304.845,1009.65 284.975,1024.46 259.593,1030.34 C258.316,1030.63 256.976,1030.66 255.665,1030.8" fill="#F5D8CE"/>
    <path d="M499.542,1182.85 C521.124,1182.85 542.708,1182.75 564.288,1182.94 C568.14,1182.97 569.789,1181.76 570.792,1178.06 C573.555,1167.86 576.739,1157.77 579.757,1147.65 C583.212,1153.64 586.858,1159.38 594.696,1160.19 C595.27,1160.25 595.923,1160.79 596.303,1161.29 C601.814,1168.48 607.285,1175.7 612.769,1182.92 C611.382,1184.18 610.172,1183.69 609.098,1183.69 C573.811,1183.74 538.524,1183.77 503.237,1183.69 C502.079,1183.69 500.328,1184.95 499.542,1182.85" fill="#D3DC9E"/>
    <path d="M753.708,1105.15 C754.146,1099.33 751.924,1094.09 750.038,1088.81 C745.477,1076.03 741.622,1062.98 735.209,1050.9 C733.689,1048.04 732.115,1046.75 728.758,1046.87 C721.295,1047.12 713.816,1046.94 706.344,1046.87 C704.744,1046.86 702.987,1047.4 701.622,1046 C719.436,1045.58 737.224,1046.74 755.029,1046.87 C757.366,1046.89 758.23,1047.5 758.128,1050 C757.399,1067.97 756.036,1085.89 754.25,1103.77 C754.203,1104.25 753.895,1104.69 753.708,1105.15" fill="#F5D8CE"/>
    <path d="M622.679,931.88 C627.2,929.118 630.879,925.354 634.701,921.761 C639.745,932.662 639.333,944.32 639.438,955.905 C639.539,966.864 639.633,977.822 639.73,988.781 C640.535,995.246 639.902,1001.74 640.065,1008.21 C640.087,1009.08 639.934,1009.89 638.743,1009.77 C633.882,989.211 632.103,968.108 627.828,947.441 C626.71,942.038 624.421,937.057 622.679,931.88" fill="#D3DB9E"/>
    <path d="M719.608,446.958 C720.926,441.333 722.245,435.708 723.563,430.084 C733.192,430.428 732.898,430.593 735.777,439.606 C739.409,450.972 743.942,462.044 746.096,473.867 C748.292,485.924 748.416,497.916 745.608,509.89 C745.313,511.149 745.227,512.483 743.871,513.327 C741.34,511.308 741.1,509.036 742,505.944 C746.567,490.273 745.974,475.075 736.607,461.089 C732.371,454.765 726.361,450.362 719.608,446.958" fill="#78401B"/>
    <path d="M460.368,1203.69 C468.364,1204.62 475.964,1207.11 482.631,1212.07 C483.518,1212.73 484.749,1213.49 484.357,1214.81 C483.926,1216.27 482.438,1215.87 481.371,1215.85 C473.024,1215.74 465.543,1212.88 458.667,1208.34 C457.412,1207.51 455.277,1206.64 456.109,1204.68 C456.755,1203.15 458.758,1203.95 460.368,1203.69" fill="#FCFCFC"/>
    <path d="M644.621,425.914 C629.287,410.602 613.954,395.29 598.62,379.979 C598.946,379.663 599.272,379.347 599.598,379.031 C615.547,393.703 630.912,408.958 645.484,425.003 C645.196,425.307 644.909,425.61 644.621,425.914" fill="#30231E"/>
    <path d="M638.743,1009.77 C640.57,1005 639.1,1000.051 639.475,995.198 C639.64,993.065 639.649,990.92 639.729,988.781 C641.161,996.819 640.174,1004.89 640.787,1013.32 C638.409,1012.38 638.617,1011.06 638.743,1009.77" fill="#949885"/>
    <path d="M748.212,449.2 C745.212,445.239 744.587,440.401 743.232,435.832 C746.221,439.797 747.135,444.529 748.212,449.2" fill="#504542"/>
    <path d="M564.195,947.787 C566.492,946.58 568.929,946.825 571.535,947.684 C569.887,948.02 568.239,948.357 566.591,948.693 C565.792,948.391 564.994,948.089 564.195,947.787" fill="#30211D"/>
    <path d="M544.486,445.065 C545.142,444.791 545.798,444.518 546.454,444.244 C548.28,444.883 550.525,444.675 551.622,446.793 C549.184,446.465 546.704,446.306 544.486,445.065" fill="#C9D6D6"/>
    <path d="M645.57,625.9 C645.926,626.25 646.283,626.6 646.64,626.95 C645.907,628.175 645.161,629.383 643.151,629.736 C643.446,627.955 644.036,626.673 645.57,625.9" fill="#604534"/>
    <path d="M431.513,882.708 C431.545,881.317 431.423,879.884 432.572,878.795 C432.853,879.151 433.134,879.507 433.415,879.863 C433.089,881.189 432.762,882.516 432.436,883.843 C431.538,883.945 431.014,883.742 431.513,882.708" fill="#382C28"/>
    <path d="M558.542,972.723 C559.777,971.859 561.233,971.161 562.084,972.862 C562.521,973.735 561.311,973.935 560.473,973.783 C559.829,973.43 559.186,973.077 558.542,972.723" fill="#B3B2B3"/>
    <path d="M410.595,813.012 C411.911,813.848 413.521,814.434 413.667,816.522 C412.002,816.494 411.448,815.196 410.532,814.435 C410.553,813.961 410.574,813.486 410.595,813.012" fill="#463F3A"/>
    <path d="M337.879,865.023 C338.192,864.118 338.506,863.213 339.09,861.53 C340.024,863.745 339.911,864.973 338.784,866.12 C338.482,865.754 338.18,865.389 337.879,865.023" fill="#57524D"/>
    <path d="M634.499,919.053 C633.635,918.155 633.28,917.126 633.696,915.884 C635.159,915.877 635.19,917.036 635.446,918.01 C635.131,918.358 634.815,918.706 634.499,919.053" fill="#63605A"/>
    <path d="M511.686,535.063 C506.924,535.243 499.891,533.637 493.422,529.841 C480.759,522.412 481.471,509.025 492.004,500.306 C497.926,495.404 504.923,492.931 512.255,491.259 C521.893,489.062 531.289,489.792 540.395,493.839 C557.527,501.454 557.051,516.768 542.622,526.912 C534.207,532.828 524.579,534.975 511.686,535.063" fill="#F9D1D0"/>
    <path d="M273.626,526.945 C263.54,527.038 254.727,523.907 247.694,516.483 C240.747,509.149 242.346,500.071 251.29,495.654 C263.303,489.721 283.214,494.378 291.11,505.125 C293.812,508.803 295.887,512.962 293.565,517.578 C290.629,523.415 285.294,525.962 279.115,526.903 C277.325,527.175 275.458,526.945 273.626,526.945" fill="#F9D1D0"/>
    <path d="M325.978,586.663 C324.071,594.026 322.396,601.461 320.153,608.72 C319.129,612.031 320.114,613.386 322.854,614.939 C338.162,623.613 354.923,627.639 372.044,630.326 C407.453,635.884 442.024,633.191 475.281,618.964 C491.652,611.96 506.206,602.213 519.194,590.026 C522.132,587.269 523.456,585.295 519.396,582.507 C517.508,581.21 516.064,579.264 514.425,577.605 C513.503,576.672 513.096,575.631 514.145,574.561 C515.254,573.43 516.274,574.058 517.159,574.932 C520.356,578.092 523.572,581.233 526.699,584.461 C528.94,586.776 526.574,588.018 525.296,589.331 C510.59,604.445 493.457,616.105 473.859,623.762 C427.505,641.872 380.873,640.504 334.252,624.667 C328.438,622.692 323.045,619.649 317.802,616.42 C316.258,615.469 314.462,614.683 315.347,612.226 C318.482,603.526 321.57,594.809 324.675,586.098 C325.109,586.287 325.544,586.475 325.978,586.663" fill="#2F211D"/>
    <path d="M322.579,454.029 C322.847,460.197 322.749,466.34 320.623,472.233 C319.658,474.909 318.434,477.643 315.2,478.152 C311.66,478.711 309.568,476.27 308.127,473.634 C301.552,461.609 299.865,448.899 303.599,435.644 C304.455,432.603 305.827,429.359 309.561,429.072 C313.205,428.793 315.041,431.729 316.729,434.425 C319.507,438.86 320.724,443.861 321.777,448.909 C322.104,449.865 321.548,450.164 320.755,450.288 C319.598,450.076 318.759,449.186 317.681,448.817 C315.915,448.213 314.444,448.718 313.377,450.215 C312.273,451.764 312.567,453.323 313.644,454.747 C314.787,456.256 316.278,456.555 317.993,455.769 C319.188,455.222 320.096,454.213 321.316,453.7 C321.802,453.562 322.223,453.673 322.579,454.029" fill="#2F201B"/>
    <path d="M462.48,448.152 C462.527,454.148 462.651,460.18 460.523,465.905 C459.494,468.674 458.383,471.729 454.789,472.119 C451.226,472.506 449.203,469.966 447.795,467.355 C441.19,455.099 439.619,442.197 443.683,428.793 C444.51,426.066 445.991,423.377 449.234,423.007 C452.488,422.637 454.345,425.026 455.926,427.423 C458.419,431.203 460.149,435.308 460.695,439.851 C461.317,440.841 461.138,441.671 460.202,442.351 C459.253,442.744 458.278,442.543 457.312,442.443 C455.091,442.213 453.467,443.057 452.67,445.166 C452.094,446.688 452.513,448.073 453.718,449.154 C455.286,450.562 456.966,450.414 458.662,449.373 C459.078,449.117 459.477,448.835 459.884,448.558 C460.699,448.102 461.498,447.521 462.48,448.152" fill="#2F201B"/>
    <path d="M274.628,381.971 C275.82,375.289 276.275,368.467 278.654,362.016 C280.577,356.805 283.115,352.017 287.397,348.333 C294.296,342.4 302.102,342.186 309.099,347.937 C313.98,351.949 317.231,356.967 318.007,364.415 C313.958,360.246 310.496,356.798 306.117,354.522 C300.014,351.349 295.578,352.014 290.992,357.164 C284.827,364.087 281.271,372.5 277.9,380.988 C277.053,382.687 276.206,384.385 275.266,386.268 C274.076,384.75 275.077,383.268 274.628,381.971" fill="#30211D"/>
    <path d="M705.281,462.276 C706.626,462.058 707.595,462.576 707.784,463.964 C707.989,465.466 706.977,465.841 705.677,466.103 C688.474,469.566 681.838,483.108 675.892,497.341 C674.852,499.831 676.433,500.085 678.113,500.505 C684.291,502.05 688.777,505.441 689.271,512.193 C689.751,518.753 686.576,523.635 681.131,527.138 C679.696,528.061 678.03,529.225 676.87,527.261 C675.813,525.473 677.795,524.782 678.954,523.938 C679.624,523.45 680.337,523.009 680.956,522.462 C684.425,519.397 686.459,515.641 685.213,510.975 C683.981,506.365 680.196,504.278 675.838,504.062 C670.791,503.811 670.033,501.958 671.699,497.5 C675.7,486.797 680.58,476.73 689.552,469.202 C694.116,465.373 699.37,463.083 705.281,462.276" fill="#30231E"/>
    <path d="M355.458,506.107 C350.482,506.021 345.506,505.958 340.53,505.84 C336.684,505.75 334.882,507.783 334.164,511.393 C333.023,517.136 334.929,522.189 337.387,527.14 C339.315,531.024 341.938,534.447 344.719,537.756 C345.368,538.528 345.908,539.426 344.991,540.402 C343.959,541.5 342.988,541.105 341.924,540.36 C334.473,535.139 328.43,518.299 330.644,509.341 C331.946,504.071 335.509,502.176 340.476,501.996 C347.038,501.758 353.282,503.45 359.525,505.145 C358.668,507.573 356.913,506.206 355.458,506.107" fill="#332420"/>
    <path d="M462.48,448.152 C461.868,448.428 461.255,448.704 460.643,448.98 C459.217,447.482 459.319,445.852 460.222,444.152 C460.674,443.655 461.182,443.592 461.743,443.964 C463.001,445.182 462.756,446.664 462.48,448.152" fill="#ACA6A4"/>
    <path d="M355.458,506.107 C356.721,505.395 358.42,506.526 359.525,505.145 C360.081,505.465 361.005,505.693 361.114,506.126 C361.331,506.99 360.454,507.088 359.822,506.984 C358.359,506.743 356.912,506.405 355.458,506.107" fill="#6D6968"/>
    <path d="M322.579,454.029 C322.233,453.966 321.887,453.903 321.541,453.84 C320.491,452.647 319.753,451.398 320.823,449.825 C321.141,449.52 321.459,449.215 321.777,448.909 C323.093,450.452 322.656,452.269 322.579,454.029" fill="#A49F9D"/>
    <path d="M461.743,443.964 C461.398,443.945 461.052,443.926 460.707,443.907 C459.747,443.628 459.231,443.074 459.54,442.013 C460.476,441.586 460.43,440.636 460.695,439.851 C461.627,441.074 461.762,442.5 461.743,443.964" fill="#554E4D"/>
    <path d="M450.718,894.006 C450.372,894.474 450.025,894.942 449.678,895.41 C447.922,897.597 445.837,896.98 443.722,896.109 C442.352,896.001 441.77,894.975 441.196,893.94 C439.325,891.846 439.716,889.871 441.509,887.97 C442.2,887.261 442.891,886.552 443.583,885.843 C444.955,885.068 446.326,884.806 447.695,885.851 C449.013,885.701 449.603,886.892 450.561,887.406 C452.373,889.564 453.089,891.748 450.718,894.006" fill="#FCFCFC"/>
    <path d="M440.403,937.667 C441.472,938.641 442.541,939.616 443.61,940.59 C443.594,942.053 443.752,943.534 443.142,944.933 C442.782,946.517 441.639,947.464 440.386,948.321 C438.912,948.807 437.43,949.105 435.909,948.52 C434.318,948.125 433.14,947.263 432.639,945.634 C432.717,945.409 432.699,945.192 432.583,944.983 C431.456,943.343 431.387,941.684 432.496,940.005 C433.114,938.612 434.299,938.007 435.699,937.702 C437.25,935.467 438.829,936.845 440.403,937.667" fill="#FCFCFC"/>
    <path d="M426.554,828.967 C426.857,828.631 427.16,828.295 427.464,827.958 C429.227,828.011 430.419,828.902 431.149,830.472 C432.104,833.724 433.906,837.043 430.386,839.933 C426.915,839.999 426.888,837.396 426.574,835.014 C425.242,833.003 425.507,830.987 426.554,828.967" fill="#FBFBFB"/>
    <path d="M430.386,839.933 C432.78,836.639 431.373,833.31 430.48,829.985 C430.744,829.584 431.047,829.552 431.389,829.888 C433.498,832.685 433.645,835.801 432.668,838.993 C432.394,839.888 431.859,841.378 430.386,839.933" fill="#73726C"/>
    <path d="M426.554,828.967 C426.561,830.982 426.568,832.997 426.574,835.013 C423.05,833.01 423.995,830.992 426.554,828.967" fill="#8A8A85"/>
    <path d="M431.513,882.708 C431.821,883.086 432.129,883.465 432.436,883.843 C431.61,886.081 432.183,888.806 429.795,891.016 C429.975,887.866 430.153,885.18 431.513,882.708" fill="#504942"/>
    <path d="M443.722,896.109 C445.664,895.504 447.808,896.629 449.678,895.41 C448.024,898.465 446.152,899.66 443.722,896.109" fill="#534E4D"/>
    <path d="M432.496,940.005 C432.525,941.663 432.555,943.322 432.583,944.982 C429.045,943.385 429.574,941.716 432.496,940.005" fill="#878783"/>
    <path d="M435.595,948.058 C437.223,947.928 438.851,947.797 440.479,947.666 C440.808,947.856 440.948,948.081 440.898,948.342 C440.846,948.619 440.774,948.758 440.682,948.758 C439.029,949.675 437.394,950.976 435.609,948.988 C435.255,948.787 435.135,948.583 435.248,948.374 C435.362,948.164 435.477,948.058 435.595,948.058" fill="#80807C"/>
    <path d="M429.21,896.602 C428.368,894.778 428.429,893.527 429.566,891.93 C431.053,893.68 430.675,894.896 429.21,896.602" fill="#9C9F8D"/>
    <path d="M450.718,894.006 C452.269,891.769 451.31,889.594 450.56,887.41 C453.833,889.529 454.054,891.725 450.718,894.006" fill="#625F5D"/>
    <path d="M442.813,944.959 C442.896,943.47 442.123,941.825 443.609,940.591 C445.118,942.017 445.253,943.462 443.671,944.932 C443.4,945.401 443.114,945.433 442.813,944.959" fill="#888884"/>
    <path d="M441.509,887.97 C440.413,889.908 440.377,891.901 441.195,893.939 C438.503,891.803 438.246,889.794 441.509,887.97" fill="#5A5654"/>
    <path d="M431.389,829.888 C431.082,829.883 430.779,829.916 430.48,829.985 C429.475,829.31 428.469,828.634 427.464,827.958 C430.055,825.991 430.569,828.252 431.389,829.888" fill="#65645E"/>
    <path d="M440.403,937.667 C438.836,937.68 437.263,936.822 435.701,937.702 C437.091,935.176 438.07,935.168 440.403,937.667" fill="#625F5B"/>
    <path d="M447.695,885.851 C446.325,885.849 444.955,885.846 443.584,885.843 C444.958,883.581 446.331,882.57 447.695,885.851" fill="#82837C"/>
    <path d="M442.813,944.959 C443.1,944.996 443.387,944.986 443.671,944.932 C443.456,946.818 442.472,948.103 440.682,948.759 C440.614,948.394 440.547,948.03 440.479,947.666 C441.257,946.764 442.035,945.862 442.813,944.959" fill="#605B59"/>
    <path d="M435.595,948.058 C435.586,948.369 435.591,948.678 435.61,948.988 C434.066,948.361 431.505,948.634 432.64,945.634 C433.624,946.442 434.61,947.25 435.595,948.058" fill="#5D5A57"/>
    <path d="M944.451,68.909 C947.225,58.43 951.29,48.499 956.878,39.188 C960.275,33.529 964.99,29.807 971.346,27.786 C989.477,22.021 1008.21,19.493 1026.96,16.968 C1030.74,16.458 1034.55,16.218 1038.35,15.853 C1039.33,15.635 1040.52,14.996 1040.49,16.885 C1018.27,20.942 995.959,24.517 974.21,30.884 C967.379,32.884 962.53,36.777 958.893,42.714 C953.578,51.389 949.499,60.651 945.457,69.942 C944.554,70.15 944.057,69.963 944.451,68.909" fill="#31231E"/>
    <path d="M1040.49,16.885 C1039.78,16.541 1039.06,16.197 1038.35,15.854 C1040.77,15.029 1043.2,13.893 1045.55,16.02 C1043.87,16.308 1042.18,16.597 1040.49,16.885" fill="#605B5B"/>
    <path d="M944.451,68.909 C944.787,69.253 945.122,69.598 945.457,69.942 C945.123,70.888 944.79,71.834 944.456,72.78 C942.514,71.492 943.546,70.2 944.451,68.909" fill="#706F6F"/>
    <path d="M320.823,449.825 C321.062,451.163 321.301,452.502 321.541,453.84 C320.219,456.347 318.49,458.313 315.314,457.541 C313.027,456.986 311.563,455.379 311.233,453.02 C310.898,450.625 311.992,448.816 314.103,447.727 C316.98,446.244 319.192,447.171 320.823,449.825" fill="#FAFAFA"/>
    <path d="M459.54,442.013 C459.929,442.644 460.318,443.275 460.707,443.907 C460.686,445.598 460.664,447.289 460.643,448.98 C458.63,451.937 456.03,452.598 453.153,450.456 C450.993,448.848 450.095,446.541 451.603,443.983 C453.531,440.711 456.284,440.214 459.54,442.013" fill="#F8F8F8"/>
  </g>
</svg>
